<?xml version="1.0" encoding="UTF-8" standalone="no"?>
<!-- Created with Inkscape (http://www.inkscape.org/) -->

<svg
   width="100"
   height="20"
   viewBox="0 0 1 0.2"
   version="1.1"
   id="SVGRoot"
   sodipodi:docname="furrybeware-text.svg"
   inkscape:version="1.2 (dc2aedaf03, 2022-05-15)"
   xmlns:inkscape="http://www.inkscape.org/namespaces/inkscape"
   xmlns:sodipodi="http://sodipodi.sourceforge.net/DTD/sodipodi-0.dtd"
   xmlns="http://www.w3.org/2000/svg"
   xmlns:svg="http://www.w3.org/2000/svg">
  <sodipodi:namedview
     id="namedview394"
     pagecolor="#ffffff"
     bordercolor="#ffffff"
     borderopacity="0"
     inkscape:showpageshadow="2"
     inkscape:pageopacity="0.0"
     inkscape:pagecheckerboard="false"
     inkscape:deskcolor="#d1d1d1"
     inkscape:document-units="in"
     showgrid="false"
     inkscape:zoom="11.459933"
     inkscape:cx="51.440093"
     inkscape:cy="8.7696851"
     inkscape:window-width="1920"
     inkscape:window-height="991"
     inkscape:window-x="-9"
     inkscape:window-y="-9"
     inkscape:window-maximized="1"
     inkscape:current-layer="layer1" />
  <defs
     id="defs389" />
  <g
     inkscape:label="Layer 1"
     inkscape:groupmode="layer"
     id="layer1">
    <g
       id="g2097"
       style="fill:#000000;fill-opacity:1">
      <path
         d="m 0.18664522,0.11046154 q 0,0.006338 0.002585,0.009231 0.002646,0.002831 0.008308,0.002831 0.005108,0 0.009908,-0.002954 0.004862,-0.002954 0.007631,-0.007323 V 0.06455385 h 0.0103385 v 0.0648 h -0.0088 l -8.6154e-4,-0.008738 q -0.003754,0.0048 -0.009354,0.007508 -0.005538,0.002646 -0.0113846,0.002646 -0.009292,0 -0.0140308,-0.004923 -0.004677,-0.004985 -0.004677,-0.0141539 v -0.0471391 h 0.0103385 z"
         id="path1265"
         style="font-size:0.12px;font-family:'FiraCode Nerd Font Mono';-inkscape-font-specification:'FiraCode Nerd Font Mono weight=450';fill:#000000;fill-opacity:1;stroke-width:0.01" />
      <path
         d="m 0.11772209,0.08301539 h 0.0332308 v 0.0086154 H 0.11772209 V 0.12935385 H 0.10713748 V 0.04461539 h 0.0499077 l -0.001292,0.0087385 h -0.0380308 z"
         id="path1263"
         style="font-size:0.12px;font-family:'FiraCode Nerd Font Mono';-inkscape-font-specification:'FiraCode Nerd Font Mono weight=450';fill:#000000;fill-opacity:1;stroke-width:0.01" />
      <path
         d="m 0.29390681,0.06313847 q 0.002523,0 0.004615,3.6923e-4 0.002092,3.0769e-4 0.004554,0.0010461 l -0.001477,0.02190769 h -0.008492 V 0.07267693 h -5.5385e-4 q -0.007508,0 -0.0128,0.0052923 -0.005292,0.0052923 -0.008554,0.016 v 0.02744615 h 0.0131692 v 0.007938 h -0.0336 v -0.007938 h 0.0100925 V 0.07249231 h -0.0100923 v -0.0079385 h 0.0179692 l 0.001908,0.01532308 q 0.003938,-0.0084308 0.009354,-0.01255385 0.005477,-0.0041846 0.0139073,-0.0041846 z"
         id="path1267"
         style="font-size:0.12px;font-family:'FiraCode Nerd Font Mono';-inkscape-font-specification:'FiraCode Nerd Font Mono weight=450';fill:#000000;fill-opacity:1;stroke-width:0.01" />
      <path
         d="m 0.36775302,0.06313847 q 0.002523,0 0.004615,3.6923e-4 0.002092,3.0769e-4 0.004554,0.0010461 l -0.001477,0.02190769 h -0.008492 V 0.07267693 h -5.5385e-4 q -0.007508,0 -0.0128,0.0052923 -0.005292,0.0052923 -0.008554,0.016 v 0.02744615 h 0.0131692 v 0.007938 h -0.0336 v -0.007938 h 0.0100925 V 0.07249231 h -0.0100923 v -0.0079385 h 0.0179692 l 0.001908,0.01532308 q 0.003938,-0.0084308 0.009354,-0.01255385 0.005477,-0.0041846 0.0139072,-0.0041846 z"
         id="path1269"
         style="font-size:0.12px;font-family:'FiraCode Nerd Font Mono';-inkscape-font-specification:'FiraCode Nerd Font Mono weight=450';fill:#000000;fill-opacity:1;stroke-width:0.01" />
      <path
         d="m 0.42898384,0.12978462 q -0.002523,0.007262 -0.006031,0.0125539 -0.003446,0.005292 -0.009108,0.008738 -0.0056,0.003508 -0.0137846,0.004308 l -0.0016,-0.008246 q 0.006523,-0.001108 0.0104,-0.003323 0.003938,-0.002215 0.006154,-0.0056 0.002215,-0.003385 0.004123,-0.008862 h -0.003446 l -0.0226461,-0.0648 h 0.0110769 l 0.0185846,0.05692308 0.0183385,-0.05692308 h 0.0107077 z"
         id="path1271"
         style="font-size:0.12px;font-family:'FiraCode Nerd Font Mono';-inkscape-font-specification:'FiraCode Nerd Font Mono weight=450';fill:#000000;fill-opacity:1;stroke-width:0.01" />
    </g>
    <g
       id="g2130">
      <path
         d="m 0.52572237,0.10516924 q 0,0.008738 -0.004492,0.0141538 -0.004492,0.005354 -0.0116308,0.007692 -0.007138,0.002338 -0.0156308,0.002338 H 0.47119929 V 0.04461539 h 0.0208615 q 0.0128615,0 0.0214154,0.0049846 0.008554,0.0049231 0.008554,0.01636923 0,0.0076308 -0.004492,0.01230769 -0.004492,0.0046769 -0.0112615,0.0062154 0.0194462,0.0033231 0.0194457,0.02067693 z M 0.51107621,0.06652308 q 0,-0.0132923 -0.0166154,-0.0132923 h -0.0126154 v 0.02744615 h 0.0136615 q 0.007692,0 0.0116308,-0.0033846 0.003938,-0.0034462 0.003939,-0.01076925 z m 0.003385,0.03901539 q 0,-0.0089231 -0.004923,-0.01249231 -0.004862,-0.0035692 -0.0132308,-0.0035692 h -0.0144615 v 0.03107692 h 0.0139692 q 0.007815,0 0.0132308,-0.003262 0.005415,-0.003262 0.005415,-0.0117534 z"
         id="path1273"
         style="font-size:0.12px;font-family:'FiraCode Nerd Font Mono';-inkscape-font-specification:'FiraCode Nerd Font Mono weight=450';fill:#ff0000;fill-opacity:1;stroke-width:0.01" />
      <path
         d="m 0.55366087,0.10061539 q 2.4615e-4,0.007262 0.002831,0.0121231 0.002585,0.0048 0.006769,0.007138 0.004185,0.002277 0.009354,0.002277 0.0048,0 0.0088,-0.001415 0.004062,-0.001415 0.008492,-0.004431 l 0.004862,0.006831 q -0.004554,0.003569 -0.0104615,0.0056 -0.005846,0.002031 -0.0118154,0.002031 -0.009292,0 -0.016,-0.004185 -0.006708,-0.004185 -0.0102154,-0.0118154 -0.003446,-0.007631 -0.003446,-0.01772308 0,-0.0097846 0.003508,-0.01747692 0.003508,-0.0076923 0.009908,-0.012 0.0064,-0.0043692 0.0148923,-0.0043692 0.008123,0 0.0140308,0.0038154 0.005969,0.0038154 0.009108,0.01101539 0.0032,0.0071385 0.0032,0.01692307 0,0.0028308 -2.4615e-4,0.0056615 z m 0.0176,-0.02892308 q -0.007508,0 -0.0122462,0.0052923 -0.004677,0.0052308 -0.005292,0.01563077 h 0.0337846 Q 0.58732265,0.0824 0.58301527,0.07704615 0.57870727,0.07169225 0.57126087,0.07169231 Z"
         id="path1275"
         style="font-size:0.12px;font-family:'FiraCode Nerd Font Mono';-inkscape-font-specification:'FiraCode Nerd Font Mono weight=450';fill:#ff0000;fill-opacity:1;stroke-width:0.01" />
      <path
         d="m 0.65273783,0.12935385 -0.008369,-0.04756923 -0.009108,0.04756923 h -0.0142769 l -0.0118154,-0.0648 h 0.0105846 l 0.008246,0.0584 0.0103385,-0.05015384 h 0.0122462 l 0.009785,0.05015384 0.008246,-0.0584 h 0.0100923 l -0.0113231,0.0648 z"
         id="path1277"
         style="font-size:0.12px;font-family:'FiraCode Nerd Font Mono';-inkscape-font-specification:'FiraCode Nerd Font Mono weight=450';fill:#ff0000;fill-opacity:1;stroke-width:0.01" />
      <path
         d="m 0.7396302,0.11520001 q 0,0.003815 0.001231,0.005662 0.001231,0.001785 0.004062,0.002646 l -0.002523,0.007262 q -0.009354,-0.001231 -0.0118769,-0.009108 -0.003446,0.004492 -0.008738,0.006831 -0.005231,0.002277 -0.0115692,0.002277 -0.0064,0 -0.0111385,-0.002462 -0.004738,-0.002462 -0.007262,-0.006954 -0.002523,-0.004554 -0.002523,-0.0105846 0,-0.0100308 0.007815,-0.01538462 0.007815,-0.0053538 0.0225846,-0.0053538 h 0.009538 v -0.0054154 q 0,-0.0067692 -0.003938,-0.0097846 -0.003938,-0.0030769 -0.0115077,-0.0030769 -0.007323,0 -0.0168615,0.0033231 L 0.694215,0.06726179 q 0.0108308,-0.0040615 0.0211692,-0.0040615 0.0118769,0 0.0180308,0.0056 0.006215,0.0055385 0.006215,0.01532307 z m -0.0267692,0.007692 q 0.0048,0 0.009108,-0.0024 0.004369,-0.002462 0.007262,-0.006769 V 0.09704616 H 0.719877 q -0.0102769,0 -0.0148923,0.0035077 -0.004615,0.003508 -0.004615,0.0100923 0,0.0122462 0.0124923,0.0122462 z"
         id="path1279"
         style="font-size:0.12px;font-family:'FiraCode Nerd Font Mono';-inkscape-font-specification:'FiraCode Nerd Font Mono weight=450';fill:#ff0000;fill-opacity:1;stroke-width:0.01" />
      <path
         d="m 0.81083027,0.06313847 q 0.002523,0 0.004615,3.6923e-4 0.002092,3.0769e-4 0.004554,0.0010461 l -0.001477,0.02190769 h -0.008492 V 0.07267693 h -5.5385e-4 q -0.007508,0 -0.0128,0.0052923 -0.005292,0.0052923 -0.008554,0.016 v 0.02744615 h 0.0131692 v 0.007938 h -0.0336 v -0.007938 h 0.0100923 V 0.07249231 h -0.0100923 v -0.0079385 h 0.0179692 l 0.001908,0.01532308 q 0.003938,-0.0084308 0.009354,-0.01255385 0.005477,-0.0041846 0.0139074,-0.0041846 z"
         id="path1281"
         style="font-size:0.12px;font-family:'FiraCode Nerd Font Mono';-inkscape-font-specification:'FiraCode Nerd Font Mono weight=450';fill:#ff0000;fill-opacity:1;stroke-width:0.01" />
      <path
         d="m 0.84904572,0.10061539 q 2.4615e-4,0.007262 0.002831,0.0121231 0.002585,0.0048 0.006769,0.007138 0.004185,0.002277 0.009354,0.002277 0.0048,0 0.0088,-0.001415 0.004062,-0.001415 0.008492,-0.004431 l 0.004862,0.006831 q -0.004554,0.003569 -0.0104615,0.0056 -0.005846,0.002031 -0.0118154,0.002031 -0.009292,0 -0.016,-0.004185 -0.006708,-0.004185 -0.0102154,-0.0118154 -0.003446,-0.007631 -0.003446,-0.01772308 0,-0.0097846 0.003508,-0.01747692 0.003508,-0.0076923 0.009908,-0.012 0.0064,-0.0043692 0.0148923,-0.0043692 0.008123,0 0.0140308,0.0038154 0.005969,0.0038154 0.009108,0.01101539 0.0032,0.0071385 0.0032,0.01692307 0,0.0028308 -2.4615e-4,0.0056615 z m 0.0176,-0.02892308 q -0.007508,0 -0.0122462,0.0052923 -0.004677,0.0052308 -0.005292,0.01563077 h 0.0337846 q -1.8486e-4,-0.01021537 -0.004493,-0.01556922 -0.004308,-0.0053539 -0.0117539,-0.0053539 z"
         id="path1283"
         style="font-size:0.12px;font-family:'FiraCode Nerd Font Mono';-inkscape-font-specification:'FiraCode Nerd Font Mono weight=450';fill:#ff0000;fill-opacity:1;stroke-width:0.01" />
    </g>
  </g>
</svg>
