<?xml version="1.0" encoding="UTF-8" standalone="no"?>
<!-- Created with Inkscape (http://www.inkscape.org/) -->

<svg
   width="120"
   height="120"
   viewBox="0 0 120 120"
   version="1.1"
   id="svg5"
   xml:space="preserve"
   inkscape:version="1.2 (dc2aedaf03, 2022-05-15)"
   sodipodi:docname="furrybeware.svg"
   xmlns:inkscape="http://www.inkscape.org/namespaces/inkscape"
   xmlns:sodipodi="http://sodipodi.sourceforge.net/DTD/sodipodi-0.dtd"
   xmlns="http://www.w3.org/2000/svg"
   xmlns:svg="http://www.w3.org/2000/svg"><sodipodi:namedview
     id="namedview7"
     pagecolor="#ffffff"
     bordercolor="#000000"
     borderopacity="0.25"
     inkscape:showpageshadow="2"
     inkscape:pageopacity="0.0"
     inkscape:pagecheckerboard="0"
     inkscape:deskcolor="#d1d1d1"
     inkscape:document-units="px"
     showgrid="false"
     inkscape:zoom="6.7"
     inkscape:cx="57.910448"
     inkscape:cy="53.656716"
     inkscape:window-width="1920"
     inkscape:window-height="991"
     inkscape:window-x="-9"
     inkscape:window-y="-9"
     inkscape:window-maximized="1"
     inkscape:current-layer="layer1" /><defs
     id="defs2" /><g
     inkscape:label="Layer 1"
     inkscape:groupmode="layer"
     id="layer1"><g
       style="fill:none;stroke:#000000;stroke-opacity:1"
       id="g3249"
       transform="matrix(5.3455183,0,0,5.3207494,19.908613,20.094379)"><path
         d="M 6.5,3 V 2 C 6.5,1.17157 5.82843,0.5 5,0.5 4.17157,0.5 3.5,1.17157 3.5,2 V 3 C 3.5,3.82843 4.17157,4.5 5,4.5 5.82843,4.5 6.5,3.82843 6.5,3 Z"
         stroke="#000000"
         id="path3228"
         style="stroke:#000000;stroke-opacity:1" /><path
         d="M 11.5,3 V 2 C 11.5,1.17157 10.8284,0.5 10,0.5 9.17157,0.5 8.5,1.17157 8.5,2 v 1 c 0,0.82843 0.67157,1.5 1.5,1.5 0.8284,0 1.5,-0.67157 1.5,-1.5 z"
         stroke="#000000"
         id="path3230"
         style="stroke:#000000;stroke-opacity:1" /><path
         d="M 14.5,7.5 V 7 C 14.5,6.17157 13.8284,5.5 13,5.5 12.1716,5.5 11.5,6.17157 11.5,7 v 0.5 c 0,0.82843 0.6716,1.5 1.5,1.5 0.8284,0 1.5,-0.67157 1.5,-1.5 z"
         stroke="#000000"
         id="path3232"
         style="stroke:#000000;stroke-opacity:1" /><path
         d="M 3.5,7.5 V 7 C 3.5,6.17157 2.82843,5.5 2,5.5 1.17157,5.5 0.5,6.17157 0.5,7 V 7.5 C 0.5,8.32843 1.17157,9 2,9 2.82843,9 3.5,8.32843 3.5,7.5 Z"
         stroke="#000000"
         id="path3234"
         style="stroke:#000000;stroke-opacity:1" /><path
         d="M 2.8554,11.6399 5.77324,8.09678 c 0.89479,-1.08653 2.55873,-1.08653 3.45352,0 l 2.91784,3.54312 c 0.9394,1.1407 0.128,2.8601 -1.3498,2.8601 -0.1939,0 -0.3851,-0.0451 -0.5585,-0.1319 L 9.87662,14.1883 c -1.49612,-0.748 -3.25712,-0.748 -4.75324,0 L 4.76371,14.3681 C 4.59029,14.4549 4.39905,14.5 4.20516,14.5 2.72742,14.5 1.91599,12.7806 2.8554,11.6399 Z"
         stroke="#000000"
         id="path3236"
         style="stroke:#000000;stroke-opacity:1" /></g><ellipse
       style="fill:none;stroke:#ff0000;stroke-width:2.95194;stroke-dasharray:none;stroke-opacity:1"
       id="path3824"
       cy="60"
       cx="60"
       rx="58.524025"
       ry="58.524029" /><rect
       style="fill:#ff0000;fill-opacity:1;stroke:none;stroke-width:1;stroke-dasharray:none;stroke-opacity:1"
       id="rect27842"
       width="116.32536"
       height="6.0622363"
       x="-58.162663"
       y="-87.883926"
       transform="rotate(135)" /></g></svg>
